<svg xmlns="http://www.w3.org/2000/svg" xml:space="preserve" width="800" height="800" viewBox="0 0 32 32"><g fill="none" stroke="#000" stroke-linejoin="round" stroke-miterlimit="10" stroke-width="2"><path d="M31 19v-6h-4.425a10.923 10.923 0 0 0-1.065-2.51L29 7l-4-4-3.49 3.49c-.482-.28-.985-.523-1.51-.729V1h-8v4.761c-.525.205-1.028.449-1.51.728L7 3 3 7l3.49 3.49A10.88 10.88 0 0 0 5.425 13H1v6h4.425c.252.888.611 1.729 1.065 2.51L3 25l4 4 3.49-3.49c.482.28.986.523 1.51.728V31h8v-4.761a10.993 10.993 0 0 0 1.51-.728L25 29l4-4-3.49-3.49c.454-.781.813-1.622 1.065-2.51H31z"/><circle cx="16" cy="16" r="5"/></g></svg>